# xmcd
#
# Track frame offsets:
#	150
#	5748
#	11323
#	14199
#	27885
#	34578
#	47708
#	57010
#	62583
#	66430
#	74145
#	85870
#	93896
#	100645
#	105638
#	111948
#	120023
#	129745
#	139378
#	149474
#	158247
#	160338
#	164636
#	166661
#	182787
#	203618
#
# Disc length: 4440 seconds
#
# Revision: 1
# Processed by: cddbd v1.4PL0 Copyright (c) Steve Scherf et al.
# Submitted via: audiograbber 1.81.02
#
DISCID=6511561a
DTITLE=Maria Bethânia - Mariocotinha ao vivo - Cd#1/2
DYEAR=2002
DGENRE=Brasileira
TTITLE0=abertura "Dionisia Número1"
TTITLE1=A Moça do sonho
TTITLE2=Sou eu mesmo o trocado
TTITLE3=O quereres
TTITLE4=Pau-de-arara
TTITLE5=Dona do Dom
TTITLE6=Festa
TTITLE7=Trecho: A moça do Sonho
TTITLE8=Eu não sabia, tu não sabias
TTITLE9=Fotografia
TTITLE10=Anos dourados
TTITLE11=Todo o amor que houver nessa vida
TTITLE12=De todas as maneiras
TTITLE13=Eu quero ser possuída por você
TTITLE14=Seu jeito de amar
TTITLE15=Negue
TTITLE16=Sobre todas as coisas
TTITLE17=Sob medida
TTITLE18=Casinha branca
TTITLE19=O Canto de dona Sinhá (Toda a beleza que há)
TTITLE20=O Tempo e o Rio
TTITLE21=Menininha
TTITLE22=Le Lac de Come (instyrumental)
TTITLE23=Poema do menino Jesus
TTITLE24=O Doce mistério da vida (Ah!sweet mystery of life)
TTITLE25=Data Track
EXTD=
EXTT0=
EXTT1=
EXTT2=
EXTT3=
EXTT4=
EXTT5=
EXTT6=
EXTT7=
EXTT8=
EXTT9=
EXTT10=
EXTT11=
EXTT12=
EXTT13=
EXTT14=
EXTT15=
EXTT16=
EXTT17=
EXTT18=
EXTT19=
EXTT20=
EXTT21=
EXTT22=
EXTT23=
EXTT24=
EXTT25=
PLAYORDER=
